<svg width="50" height="50" viewBox="0 0 50 50" fill="none" xmlns="http://www.w3.org/2000/svg">
<path d="M0 25C0 38.8071 11.1929 50 25 50C38.8071 50 50 38.8071 50 25C50 11.1929 38.8071 0 25 0C11.1929 0 0 11.1929 0 25Z" fill="white"/>
<path d="M50 25C50 11.25 38.75 0 25 0C11.25 0 0 11.25 0 25C0 37.5 9.0625 47.8125 20.9375 49.6875V32.1875H14.6875V25H20.9375V19.375C20.9375 13.125 24.6875 9.6875 30.3125 9.6875C33.125 9.6875 35.9375 10.3125 35.9375 10.3125V16.5625H32.8125C29.6875 16.5625 28.75 18.4375 28.75 20.3125V25H35.625L34.375 32.1875H28.4375V50C40.9375 48.125 50 37.5 50 25Z" fill="#731D6D"/>
</svg>
